<?xml version="1.0" encoding="utf-8"?>
<!-- Generator: Adobe Illustrator 16.0.4, SVG Export Plug-In . SVG Version: 6.00 Build 0)  -->
<!DOCTYPE svg PUBLIC "-//W3C//DTD SVG 1.1//EN" "http://www.w3.org/Graphics/SVG/1.1/DTD/svg11.dtd">
<svg version="1.1" id="Layer_1" xmlns="http://www.w3.org/2000/svg" xmlns:xlink="http://www.w3.org/1999/xlink" x="0px" y="0px"
	 width="157.383px" height="54.008px" viewBox="-12 -160 157.383 54.008" enable-background="new -12 -160 157.383 54.008"
	 xml:space="preserve">
<image overflow="visible" width="510" height="155" xlink:href="../../../../../../../../../Users/admin/Downloads/apple-store.png"  transform="matrix(0.3113 0 0 0.3113 -354.6885 -59.7471)">
</image>
<image overflow="visible" width="510" height="155" xlink:href="../../../../../../../../../Users/admin/Downloads/apple-store.png"  transform="matrix(0.3113 0 0 0.3113 -354.6885 -65.5059)">
</image>
<g>
	<path fill="#52C1B1" d="M143.866-114.816c0,3.764-3.05,6.811-6.808,6.811h-140.4c-3.761,0-6.812-3.047-6.812-6.811v-36.763
		c0-3.763,3.052-6.812,6.812-6.812h140.401c3.758,0,6.807,3.049,6.807,6.812V-114.816L143.866-114.816z"/>
	<path fill="#FFFFFF" d="M16.446-149.772H3.9c-1.504,0-2.721,1.219-2.721,2.723v27.794c0,1.503,1.217,2.725,2.721,2.725h12.546
		c1.504,0,2.725-1.221,2.725-2.725v-27.795C19.17-148.553,17.95-149.772,16.446-149.772z M10.175-118.53
		c-1.004,0-1.811-0.812-1.811-1.814c0-1,0.807-1.812,1.811-1.812c0.998,0,1.815,0.812,1.815,1.812
		C11.991-119.342,11.173-118.53,10.175-118.53z M17.031-123.042H3.32v-20.5h13.711V-123.042z"/>
	<g>
		<path fill="#FFFFFF" d="M29.445-144.82l-0.759,2.312h-0.982l2.491-7.344h1.149l2.501,7.344h-1.013l-0.783-2.312H29.445z
			 M31.852-145.56l-0.729-2.114c-0.154-0.479-0.262-0.917-0.37-1.338H30.72c-0.096,0.421-0.219,0.882-0.361,1.329l-0.716,2.123
			H31.852z"/>
		<path fill="#FFFFFF" d="M34.826-147.783l1.034,2.955c0.177,0.488,0.316,0.925,0.427,1.361h0.033
			c0.119-0.436,0.273-0.873,0.448-1.361l1.022-2.955h1.002l-2.07,5.275h-0.918l-2-5.275H34.826z"/>
		<path fill="#FFFFFF" d="M43.204-143.771c0,0.456,0.022,0.901,0.077,1.263H42.42l-0.084-0.665H42.3
			c-0.281,0.415-0.859,0.785-1.609,0.785c-1.072,0-1.613-0.753-1.613-1.516c0-1.273,1.13-1.972,3.169-1.959v-0.11
			c0-0.435-0.12-1.233-1.196-1.222c-0.504,0-1.016,0.145-1.389,0.396l-0.215-0.647c0.437-0.269,1.08-0.458,1.744-0.458
			c1.625,0,2.013,1.105,2.013,2.161V-143.771z M42.27-145.2c-1.049-0.021-2.235,0.163-2.235,1.191c0,0.63,0.415,0.912,0.892,0.912
			c0.696,0,1.145-0.434,1.301-0.881c0.028-0.097,0.043-0.207,0.043-0.305L42.27-145.2L42.27-145.2z"/>
		<path fill="#FFFFFF" d="M45.144-148.751c-0.359,0-0.598-0.284-0.598-0.621c0-0.335,0.251-0.608,0.621-0.608
			c0.369,0,0.608,0.273,0.608,0.608c0,0.337-0.239,0.621-0.622,0.621H45.144z M44.683-142.508v-5.275h0.963v5.275H44.683z"/>
		<path fill="#FFFFFF" d="M47.18-150.243h0.959v7.735H47.18V-150.243z"/>
		<path fill="#FFFFFF" d="M53.391-143.771c0,0.456,0.019,0.901,0.075,1.263h-0.862l-0.084-0.665h-0.032
			c-0.287,0.415-0.862,0.785-1.613,0.785c-1.068,0-1.612-0.753-1.612-1.516c0-1.273,1.133-1.972,3.169-1.959v-0.11
			c0-0.435-0.118-1.233-1.199-1.222c-0.498,0-1.012,0.145-1.383,0.396l-0.218-0.647c0.437-0.269,1.079-0.458,1.742-0.458
			c1.621,0,2.018,1.105,2.018,2.161L53.391-143.771L53.391-143.771z M52.451-145.2c-1.045-0.021-2.23,0.163-2.23,1.191
			c0,0.63,0.413,0.912,0.893,0.912c0.697,0,1.143-0.434,1.295-0.881c0.035-0.097,0.043-0.207,0.043-0.305L52.451-145.2L52.451-145.2
			z"/>
		<path fill="#FFFFFF" d="M54.87-150.243h0.962v3.301h0.021c0.338-0.587,0.945-0.961,1.798-0.961c1.308,0,2.221,1.092,2.221,2.682
			c0,1.896-1.199,2.834-2.373,2.834c-0.762,0-1.364-0.294-1.766-0.991h-0.024l-0.052,0.871h-0.832
			c0.039-0.362,0.045-0.89,0.045-1.364V-150.243z M55.832-144.62c0,0.117,0.007,0.235,0.032,0.347
			c0.185,0.662,0.752,1.122,1.437,1.122c1.013,0,1.604-0.816,1.604-2.025c0-1.068-0.546-1.972-1.569-1.972
			c-0.653,0-1.263,0.457-1.452,1.177c-0.029,0.12-0.051,0.249-0.051,0.404L55.832-144.62L55.832-144.62z"/>
		<path fill="#FFFFFF" d="M61.013-150.243h0.962v7.735h-0.962V-150.243z"/>
		<path fill="#FFFFFF" d="M64.052-144.981c0.021,1.296,0.841,1.83,1.796,1.83c0.689,0,1.114-0.12,1.465-0.26l0.169,0.676
			c-0.335,0.148-0.922,0.337-1.762,0.337c-1.611,0-2.592-1.08-2.592-2.658c0-1.604,0.945-2.855,2.482-2.855
			c1.721,0,2.168,1.516,2.168,2.483c0,0.195-0.014,0.348-0.035,0.456L64.052-144.981z M66.855-145.667
			c0.006-0.598-0.252-1.559-1.321-1.559c-0.979,0-1.394,0.895-1.469,1.559H66.855z"/>
		<path fill="#FFFFFF" d="M73.314-142.388c-1.418,0-2.53-1.047-2.53-2.714c0-1.766,1.168-2.802,2.618-2.802
			c1.513,0,2.535,1.105,2.535,2.703c0,1.963-1.36,2.812-2.615,2.812L73.314-142.388L73.314-142.388z M73.348-143.108
			c0.914,0,1.6-0.86,1.6-2.058c0-0.895-0.447-2.015-1.582-2.015c-1.117,0-1.611,1.045-1.611,2.047c0,1.155,0.652,2.026,1.58,2.026
			H73.348L73.348-143.108z"/>
		<path fill="#FFFFFF" d="M77.092-146.351c0-0.559-0.01-0.991-0.045-1.432h0.85l0.057,0.862h0.021
			c0.26-0.488,0.871-0.982,1.744-0.982c0.729,0,1.861,0.438,1.861,2.247v3.148h-0.957v-3.039c0-0.85-0.316-1.57-1.224-1.57
			c-0.616,0-1.108,0.445-1.282,0.98c-0.046,0.118-0.064,0.292-0.064,0.447v3.181h-0.961V-146.351z"/>
		<path fill="#FFFFFF" d="M86.495-149.043v1.26h1.368v0.733h-1.368v2.841c0,0.654,0.188,1.023,0.717,1.023
			c0.262,0,0.42-0.02,0.559-0.062l0.041,0.729c-0.18,0.064-0.477,0.131-0.848,0.131c-0.447,0-0.81-0.157-1.035-0.402
			c-0.266-0.295-0.371-0.766-0.371-1.387v-2.873h-0.814v-0.733h0.814v-0.968L86.495-149.043z"/>
		<path fill="#FFFFFF" d="M88.889-150.243h0.963v3.288h0.021c0.147-0.271,0.389-0.521,0.684-0.673
			c0.287-0.174,0.619-0.275,0.98-0.275c0.705,0,1.84,0.438,1.84,2.256v3.14H92.42v-3.028c0-0.86-0.318-1.57-1.221-1.57
			c-0.621,0-1.099,0.434-1.285,0.961c-0.056,0.126-0.062,0.269-0.062,0.456v3.181h-0.963V-150.243z"/>
		<path fill="#FFFFFF" d="M95.426-144.981c0.023,1.296,0.84,1.83,1.795,1.83c0.691,0,1.113-0.12,1.463-0.26l0.176,0.676
			c-0.34,0.148-0.93,0.337-1.77,0.337c-1.609,0-2.59-1.08-2.59-2.658c0-1.604,0.949-2.855,2.481-2.855
			c1.722,0,2.175,1.516,2.175,2.483c0,0.195-0.015,0.348-0.039,0.456L95.426-144.981z M98.227-145.667
			c0.01-0.598-0.252-1.559-1.32-1.559c-0.977,0-1.393,0.895-1.471,1.559H98.227z"/>
		<path fill="#FFFFFF" d="M102.999-148.751c-0.359,0-0.603-0.284-0.603-0.621c0-0.335,0.248-0.608,0.621-0.608
			c0.369,0,0.612,0.273,0.612,0.608c0,0.337-0.243,0.621-0.629,0.621H102.999z M102.54-142.508v-5.275h0.959v5.275H102.54z"/>
		<path fill="#FFFFFF" d="M105.066-149.753c0.457-0.088,1.058-0.155,1.817-0.155c0.937,0,1.621,0.219,2.06,0.613
			c0.404,0.347,0.658,0.884,0.658,1.535c0,0.667-0.201,1.188-0.584,1.57c-0.498,0.533-1.313,0.804-2.242,0.804
			c-0.28,0-0.545-0.011-0.76-0.062v2.94h-0.949V-149.753z M106.016-146.224c0.203,0.056,0.479,0.08,0.781,0.08
			c1.16,0,1.84-0.568,1.84-1.56c0-0.98-0.68-1.451-1.73-1.451c-0.412,0-0.73,0.045-0.891,0.077V-146.224z"/>
		<path fill="#FFFFFF" d="M110.719-150.243h0.963v3.288h0.018c0.154-0.271,0.396-0.521,0.688-0.673
			c0.282-0.174,0.625-0.275,0.979-0.275c0.709,0,1.842,0.438,1.842,2.256v3.14h-0.961v-3.028c0-0.86-0.311-1.57-1.217-1.57
			c-0.623,0-1.104,0.434-1.289,0.961c-0.051,0.126-0.061,0.269-0.061,0.456v3.181h-0.963V-150.243z"/>
		<path fill="#FFFFFF" d="M118.854-142.388c-1.414,0-2.521-1.047-2.521-2.714c0-1.766,1.166-2.802,2.613-2.802
			c1.514,0,2.537,1.105,2.537,2.703c0,1.963-1.363,2.812-2.613,2.812L118.854-142.388L118.854-142.388z M118.891-143.108
			c0.914,0,1.6-0.86,1.6-2.058c0-0.895-0.443-2.015-1.58-2.015c-1.117,0-1.611,1.045-1.611,2.047c0,1.155,0.654,2.026,1.584,2.026
			H118.891L118.891-143.108z"/>
		<path fill="#FFFFFF" d="M122.637-146.351c0-0.559-0.01-0.991-0.043-1.432h0.85l0.057,0.862h0.019
			c0.265-0.488,0.877-0.982,1.744-0.982c0.731,0,1.862,0.438,1.862,2.247v3.148h-0.957v-3.039c0-0.85-0.315-1.57-1.221-1.57
			c-0.621,0-1.109,0.445-1.287,0.98c-0.041,0.118-0.065,0.292-0.065,0.447v3.181h-0.957L122.637-146.351L122.637-146.351z"/>
		<path fill="#FFFFFF" d="M129.172-144.981c0.021,1.296,0.84,1.83,1.797,1.83c0.689,0,1.113-0.12,1.461-0.26l0.176,0.676
			c-0.338,0.148-0.926,0.337-1.768,0.337c-1.609,0-2.59-1.08-2.59-2.658c0-1.604,0.944-2.855,2.481-2.855
			c1.728,0,2.168,1.516,2.168,2.483c0,0.195-0.01,0.348-0.028,0.456L129.172-144.981z M131.971-145.667
			c0.014-0.598-0.252-1.559-1.314-1.559c-0.986,0-1.395,0.895-1.473,1.559H131.971z"/>
	</g>
	<g>
		<path fill="#FFFFFF" d="M33.958-137.537l-6.457,19.014h2.959l1.927-5.834h6.253l1.983,5.834h3.038l-6.487-19.014H33.958z
			 M35.493-134.41c0.217,0.85,0.451,1.731,0.755,2.684l1.739,5.041h-4.952l1.714-5.074C35.011-132.584,35.262-133.472,35.493-134.41
			z"/>
		<path fill="#FFFFFF" d="M52.018-132.607c-1.956,0-3.526,0.757-4.571,2.195l-0.114-1.893h-2.632l0.018,0.242
			c0.079,1.181,0.111,2.478,0.111,4.34v14.652h2.875v-6.837c0.893,1.067,2.316,1.69,3.934,1.69c1.679,0,3.229-0.663,4.358-1.856
			c1.261-1.331,1.925-3.245,1.925-5.532c0-2.023-0.581-3.771-1.675-5.055C55.177-131.915,53.676-132.607,52.018-132.607z
			 M51.308-130.223c2.562,0,3.708,2.373,3.708,4.727c0,3.037-1.462,4.926-3.819,4.926c-1.609,0-3.001-1.095-3.391-2.672
			c-0.065-0.247-0.102-0.568-0.102-0.931v-2.313c0-0.211,0.045-0.465,0.092-0.709c0.016-0.08,0.028-0.158,0.04-0.234
			C48.266-129.079,49.688-130.223,51.308-130.223z"/>
		<path fill="#FFFFFF" d="M66.837-132.607c-1.962,0-3.531,0.757-4.576,2.195l-0.114-1.893h-2.633l0.019,0.242
			c0.077,1.181,0.109,2.478,0.109,4.34v14.652h2.877v-6.837c0.893,1.067,2.316,1.69,3.932,1.69c1.682,0,3.229-0.663,4.358-1.856
			c1.262-1.331,1.928-3.245,1.928-5.532c0-2.023-0.58-3.771-1.676-5.055C69.993-131.915,68.493-132.607,66.837-132.607z
			 M66.12-130.223c2.564,0,3.71,2.373,3.71,4.727c0,3.037-1.465,4.926-3.822,4.926c-1.606,0-3-1.095-3.39-2.672
			c-0.063-0.247-0.101-0.568-0.101-0.931v-2.313c0-0.211,0.045-0.468,0.093-0.713c0.013-0.08,0.028-0.154,0.043-0.23
			C63.079-129.079,64.506-130.223,66.12-130.223z"/>
		<path fill="#FFFFFF" d="M85.393-129.479c-2.682-1.041-3.543-1.858-3.543-3.371c0-1.273,1.008-2.557,3.271-2.557
			c1.858,0,3.051,0.652,3.375,0.852l0.239,0.15l0.813-2.401l-0.161-0.093c-0.484-0.284-1.854-0.942-4.188-0.942
			c-3.666,0-6.229,2.167-6.229,5.264c0,2.501,1.604,4.249,5.047,5.501c2.442,0.916,3.351,1.847,3.351,3.453
			c0,1.812-1.4,2.937-3.656,2.937c-1.469,0-2.978-0.429-4.146-1.174l-0.244-0.162l-0.775,2.457l0.146,0.095
			c1.086,0.727,3.129,1.253,4.86,1.253c4.941,0,6.695-3.02,6.695-5.598C90.247-126.477,88.84-128.119,85.393-129.479z"/>
		<path fill="#FFFFFF" d="M95.426-135.58l-2.822,0.884v2.391h-2.068v2.299h2.068v7.041c0,1.708,0.328,2.9,0.996,3.65
			c0.641,0.709,1.631,1.098,2.777,1.098c1.092,0,1.867-0.217,2.229-0.346l0.158-0.059l-0.14-2.303l-0.271,0.085
			c-0.364,0.11-0.737,0.153-1.342,0.153c-1.113,0-1.589-0.703-1.589-2.359v-6.961h3.468v-2.299h-3.468v-3.275H95.426z"/>
		<path fill="#FFFFFF" d="M106.023-132.607c-4.024,0-6.834,3.003-6.834,7.305c0,4.169,2.72,7.085,6.617,7.085h0.024
			c3.289,0,6.832-2.299,6.832-7.333c0-2.05-0.631-3.812-1.832-5.091C109.624-131.926,107.959-132.607,106.023-132.607z
			 M105.939-130.336c2.586,0,3.771,2.525,3.771,4.871c0,2.882-1.609,4.974-3.822,4.974h-0.027c-2.186,0-3.768-2.058-3.768-4.892
			C102.092-127.85,103.281-130.336,105.939-130.336z"/>
		<path fill="#FFFFFF" d="M121.477-132.475l-0.172-0.044c-0.252-0.061-0.461-0.088-0.713-0.088c-1.51,0-2.857,0.886-3.609,2.316
			l-0.088-2.014h-2.578l0.016,0.242c0.076,1.142,0.109,2.418,0.109,4.144l-0.027,9.397h2.877v-7.332c0-0.4,0.027-0.775,0.084-1.114
			c0.32-1.761,1.508-2.901,3.021-2.901c0.297,0,0.527,0.026,0.773,0.049l0.307,0.034V-132.475L121.477-132.475z"/>
		<path fill="#FFFFFF" d="M127.941-132.635c-3.826,0-6.502,3.062-6.502,7.443c0,4.219,2.66,6.944,6.778,6.944
			c2.169,0,3.675-0.478,4.556-0.873l0.17-0.077l-0.547-2.144l-0.242,0.096c-0.78,0.318-1.825,0.646-3.604,0.646
			c-1.25,0-4.131-0.412-4.307-4.172l9.285,0.023l0.037-0.179c0.055-0.294,0.088-0.688,0.088-1.202
			C133.654-129.128,132.161-132.635,127.941-132.635z M127.756-130.445c0.873,0,1.584,0.271,2.108,0.809
			c0.828,0.841,0.97,2.08,0.988,2.675h-6.562C124.562-128.623,125.6-130.445,127.756-130.445z"/>
	</g>
</g>
<g>
	<path fill="#595A5C" d="M329.031,98.768c0,3.764-3.048,6.811-6.805,6.811H181.827c-3.763,0-6.812-3.047-6.812-6.811V62.005
		c0-3.763,3.049-6.808,6.812-6.808h140.399c3.757,0,6.805,3.045,6.805,6.808V98.768z"/>
	<g id="PLAY_3_">
		<g>
			<defs>
				<path id="SVGID_1_" d="M208.395,77.373l-6.948-4.012c0,0-12.649-7.303-13.393-7.731c-0.744-0.428-1.484-0.17-1.484,0.729
					c0,1.496,0,15.6,0,15.6s0,15.238,0,15.909c0,0.673,0.529,0.965,1.173,0.593c0.648-0.374,13.704-7.914,13.704-7.914l6.948-4.008
					c0,0,5.891-3.403,6.672-3.855c0.786-0.451,0.708-1.072,0.049-1.43C214.452,80.895,208.395,77.373,208.395,77.373z"/>
			</defs>
			<clipPath id="SVGID_2_">
				<use xlink:href="#SVGID_1_"  overflow="visible"/>
			</clipPath>
			
				<linearGradient id="SVGID_3_" gradientUnits="userSpaceOnUse" x1="195.0298" y1="-11.8364" x2="195.0298" y2="-45.9517" gradientTransform="matrix(1 0 0 -1 0.1401 53.0625)">
				<stop  offset="0" style="stop-color:#287DB0"/>
				<stop  offset="0.2693" style="stop-color:#4A93B5"/>
				<stop  offset="0.7615" style="stop-color:#78BBBA"/>
				<stop  offset="1" style="stop-color:#8ACEBC"/>
			</linearGradient>
			<polygon clip-path="url(#SVGID_2_)" fill="url(#SVGID_3_)" points="186.569,64.898 186.569,81.958 186.569,99.014 
				203.773,81.958 			"/>
		</g>
		<g>
			<defs>
				<path id="SVGID_4_" d="M208.395,77.373l-6.948-4.012c0,0-12.649-7.303-13.393-7.731c-0.744-0.428-1.484-0.17-1.484,0.729
					c0,1.496,0,15.6,0,15.6s0,15.238,0,15.909c0,0.673,0.529,0.965,1.173,0.593c0.648-0.374,13.704-7.914,13.704-7.914l6.948-4.008
					c0,0,5.891-3.403,6.672-3.855c0.786-0.451,0.708-1.072,0.049-1.43C214.452,80.895,208.395,77.373,208.395,77.373z"/>
			</defs>
			<clipPath id="SVGID_5_">
				<use xlink:href="#SVGID_4_"  overflow="visible"/>
			</clipPath>
			
				<linearGradient id="SVGID_6_" gradientUnits="userSpaceOnUse" x1="186.4282" y1="-20.3032" x2="208.2544" y2="-20.3032" gradientTransform="matrix(1 0 0 -1 0.1401 53.0625)">
				<stop  offset="0" style="stop-color:#53C0AC"/>
				<stop  offset="1" style="stop-color:#DEE89A"/>
			</linearGradient>
			<polygon clip-path="url(#SVGID_5_)" fill="url(#SVGID_6_)" points="208.395,77.373 201.446,73.361 186.569,64.773 
				186.569,64.898 203.773,81.958 			"/>
		</g>
		<g>
			<defs>
				<path id="SVGID_7_" d="M208.395,77.373l-6.948-4.012c0,0-12.649-7.303-13.393-7.731c-0.744-0.428-1.484-0.17-1.484,0.729
					c0,1.496,0,15.6,0,15.6s0,15.238,0,15.909c0,0.673,0.529,0.965,1.173,0.593c0.648-0.374,13.704-7.914,13.704-7.914l6.948-4.008
					c0,0,5.891-3.403,6.672-3.855c0.786-0.451,0.708-1.072,0.049-1.43C214.452,80.895,208.395,77.373,208.395,77.373z"/>
			</defs>
			<clipPath id="SVGID_8_">
				<use xlink:href="#SVGID_7_"  overflow="visible"/>
			</clipPath>
			
				<linearGradient id="SVGID_9_" gradientUnits="userSpaceOnUse" x1="197.3413" y1="-28.896" x2="197.3413" y2="-46.0767" gradientTransform="matrix(1 0 0 -1 0.1401 53.0625)">
				<stop  offset="0" style="stop-color:#EB413D"/>
				<stop  offset="0.1703" style="stop-color:#D84453"/>
				<stop  offset="0.5766" style="stop-color:#B0497A"/>
				<stop  offset="0.8624" style="stop-color:#944A92"/>
				<stop  offset="1" style="stop-color:#894B9D"/>
			</linearGradient>
			<polygon clip-path="url(#SVGID_8_)" fill="url(#SVGID_9_)" points="186.569,99.014 186.569,99.139 201.446,90.546 
				208.395,86.538 203.773,81.958 			"/>
		</g>
		<g>
			<defs>
				<path id="SVGID_10_" d="M208.395,77.373l-6.948-4.012c0,0-12.649-7.303-13.393-7.731c-0.744-0.428-1.484-0.17-1.484,0.729
					c0,1.496,0,15.6,0,15.6s0,15.238,0,15.909c0,0.673,0.529,0.965,1.173,0.593c0.648-0.374,13.704-7.914,13.704-7.914l6.948-4.008
					c0,0,5.891-3.403,6.672-3.855c0.786-0.451,0.708-1.072,0.049-1.43C214.452,80.895,208.395,77.373,208.395,77.373z"/>
			</defs>
			<clipPath id="SVGID_11_">
				<use xlink:href="#SVGID_10_"  overflow="visible"/>
			</clipPath>
			
				<linearGradient id="SVGID_12_" gradientUnits="userSpaceOnUse" x1="209.9126" y1="-24.311" x2="209.9126" y2="-33.4761" gradientTransform="matrix(1 0 0 -1 0.1401 53.0625)">
				<stop  offset="0" style="stop-color:#F58879"/>
				<stop  offset="0.1104" style="stop-color:#F68F79"/>
				<stop  offset="0.7098" style="stop-color:#FBB777"/>
				<stop  offset="1" style="stop-color:#FEC774"/>
			</linearGradient>
			<polygon clip-path="url(#SVGID_11_)" fill="url(#SVGID_12_)" points="208.395,77.373 203.773,81.958 208.395,86.538 
				216.333,81.958 			"/>
		</g>
	</g>
	<g>
		<path fill="#F9F9F9" d="M294.879,88.624c-0.646,0-1.234-0.121-1.767-0.354c-0.536-0.242-0.985-0.608-1.348-1.102h-0.11
			c0.071,0.576,0.11,1.129,0.11,1.645v4.086h-1.504V78.521h1.224l0.208,1.358h0.072c0.383-0.544,0.836-0.937,1.348-1.177
			c0.515-0.243,1.103-0.363,1.767-0.363c1.317,0,2.33,0.452,3.047,1.352c0.717,0.896,1.072,2.16,1.072,3.781
			c0,1.629-0.362,2.896-1.09,3.801C297.183,88.172,296.172,88.624,294.879,88.624z M294.659,79.616c-1.012,0-1.746,0.28-2.195,0.845
			c-0.455,0.561-0.687,1.452-0.697,2.678v0.336c0,1.396,0.232,2.392,0.697,2.989c0.463,0.603,1.211,0.903,2.234,0.903
			c0.857,0,1.53-0.348,2.016-1.041c0.483-0.692,0.728-1.65,0.728-2.869c0-1.239-0.243-2.189-0.728-2.848
			C296.229,79.945,295.543,79.616,294.659,79.616z"/>
		<path fill="#F9F9F9" d="M302.477,88.443h-1.504V74.355h1.504V88.443z"/>
		<path fill="#F9F9F9" d="M311.119,88.443l-0.302-1.413h-0.072c-0.489,0.622-0.984,1.045-1.481,1.262
			c-0.488,0.224-1.104,0.332-1.836,0.332c-0.985,0-1.758-0.252-2.316-0.759c-0.56-0.508-0.836-1.229-0.836-2.166
			c0-2.002,1.603-3.053,4.804-3.151l1.688-0.054v-0.612c0-0.78-0.171-1.354-0.508-1.728c-0.329-0.371-0.868-0.557-1.603-0.557
			c-0.831,0-1.767,0.254-2.807,0.762l-0.465-1.153c0.489-0.263,1.027-0.474,1.605-0.624c0.585-0.148,1.168-0.225,1.757-0.225
			c1.182,0,2.055,0.264,2.626,0.789c0.568,0.523,0.855,1.364,0.855,2.521v6.773h-1.11V88.443z M307.724,87.383
			c0.936,0,1.667-0.255,2.206-0.767c0.533-0.513,0.8-1.23,0.8-2.157v-0.895l-1.505,0.062c-1.195,0.041-2.057,0.229-2.585,0.56
			c-0.524,0.326-0.789,0.84-0.789,1.533c0,0.542,0.163,0.955,0.493,1.238C306.672,87.243,307.13,87.383,307.724,87.383z"/>
		<path fill="#F9F9F9" d="M313.102,78.521h1.611l2.174,5.658c0.478,1.291,0.772,2.223,0.888,2.799h0.073
			c0.08-0.31,0.243-0.836,0.493-1.582c0.248-0.744,1.069-3.037,2.457-6.875h1.612l-4.267,11.297
			c-0.422,1.117-0.917,1.908-1.479,2.379c-0.562,0.467-1.259,0.701-2.078,0.701c-0.457,0-0.91-0.055-1.356-0.157V91.54
			c0.332,0.071,0.705,0.106,1.112,0.106c1.033,0,1.771-0.58,2.211-1.735l0.551-1.413L313.102,78.521z"/>
	</g>
	<g>
		<path fill="#F9F9F9" d="M267.04,79.443c0.479,0.392,1.476,1.222,1.476,2.801c0,1.535-0.873,2.262-1.744,2.947
			c-0.269,0.27-0.583,0.562-0.583,1.019c0,0.455,0.314,0.705,0.54,0.894l0.749,0.576c0.911,0.771,1.744,1.477,1.744,2.908
			c0,1.952-1.893,3.92-5.459,3.92c-3.01,0-4.465-1.428-4.465-2.967c0-0.747,0.377-1.802,1.603-2.531
			c1.284-0.787,3.028-0.891,3.964-0.955c-0.293-0.375-0.626-0.771-0.626-1.41c0-0.352,0.104-0.561,0.208-0.812
			c-0.227,0.022-0.455,0.041-0.662,0.041c-2.201,0-3.451-1.64-3.451-3.256c0-0.952,0.443-2.013,1.332-2.783
			c1.183-0.972,2.596-1.137,3.715-1.137h4.279l-1.33,0.745H267.04z M265.568,88.658c-0.168-0.024-0.271-0.024-0.476-0.024
			c-0.188,0-1.311,0.043-2.186,0.335c-0.453,0.164-1.783,0.663-1.783,2.137c0,1.473,1.438,2.533,3.654,2.533
			c1.991,0,3.051-0.957,3.051-2.238C267.829,90.338,267.145,89.779,265.568,88.658z M266.17,84.712
			c0.476-0.478,0.517-1.14,0.517-1.514c0-1.493-0.892-3.819-2.614-3.819c-0.54,0-1.119,0.273-1.451,0.686
			c-0.355,0.439-0.457,0.996-0.457,1.535c0,1.393,0.81,3.699,2.597,3.699C265.275,85.299,265.834,85.045,266.17,84.712z"/>
		<path fill="#F9F9F9" d="M253.976,88.325c-3.295,0-5.054-2.569-5.054-4.89c0-2.715,2.215-5.035,5.367-5.035
			c3.047,0,4.946,2.383,4.946,4.889C259.236,85.736,257.356,88.325,253.976,88.325z M256.569,86.646
			c0.492-0.662,0.616-1.491,0.616-2.303c0-1.82-0.866-5.303-3.44-5.303c-0.679,0-1.363,0.271-1.859,0.705
			c-0.809,0.727-0.954,1.637-0.954,2.529c0,2.049,1.013,5.428,3.522,5.428C255.262,87.704,256.088,87.309,256.569,86.646z"/>
		<path fill="#F9F9F9" d="M242.749,88.325c-3.299,0-5.062-2.569-5.062-4.89c0-2.715,2.223-5.035,5.371-5.035
			c3.048,0,4.951,2.383,4.951,4.889C248.008,85.736,246.124,88.325,242.749,88.325z M245.334,86.646
			c0.496-0.662,0.621-1.491,0.621-2.303c0-1.82-0.865-5.303-3.439-5.303c-0.682,0-1.367,0.271-1.862,0.705
			c-0.808,0.727-0.954,1.637-0.954,2.529c0,2.049,1.016,5.428,3.521,5.428C244.032,87.704,244.859,87.309,245.334,86.646z"/>
		<path fill="#F9F9F9" d="M236.107,88.002l-2.981,0.686c-1.205,0.189-2.293,0.355-3.436,0.355c-5.751,0-7.936-4.23-7.936-7.542
			c0-4.041,3.102-7.792,8.414-7.792c1.127,0,2.207,0.168,3.188,0.438c1.564,0.438,2.291,0.978,2.751,1.291l-1.729,1.647l-0.73,0.168
			l0.521-0.834c-0.707-0.69-2-1.96-4.455-1.96c-3.291,0-5.772,2.5-5.772,6.146c0,3.916,2.835,7.604,7.377,7.604
			c1.333,0,2.021-0.271,2.644-0.521v-3.354l-3.146,0.166l1.666-0.893h4.417l-0.537,0.517c-0.151,0.125-0.168,0.169-0.211,0.333
			c-0.021,0.189-0.041,0.796-0.041,1v2.545H236.107z"/>
		<path fill="#F9F9F9" d="M273.624,87.402c-0.686-0.062-0.828-0.188-0.828-1.004v-0.226V74.609c0.002-0.045,0.006-0.09,0.008-0.133
			c0.084-0.728,0.292-0.854,0.941-1.23h-2.982l-1.562,0.751h1.594v0.009V74v12.172v0.686c0,0.418-0.084,0.481-0.562,1.105h3.688
			l0.767-0.458C274.336,87.462,273.979,87.443,273.624,87.402z"/>
		<path fill="#F9F9F9" d="M282.104,87.594c-0.23,0.122-0.458,0.27-0.68,0.369c-0.688,0.314-1.391,0.395-2.014,0.395
			c-0.66,0-1.695-0.043-2.75-0.806c-1.47-1.034-2.109-2.813-2.109-4.366c0-3.207,2.605-4.779,4.738-4.779
			c0.744,0,1.51,0.186,2.135,0.578c1.029,0.685,1.301,1.576,1.439,2.048L278.006,83l-1.594,0.122c0.52,2.63,2.295,4.157,4.262,4.157
			c1.056,0,1.82-0.37,2.523-0.723L282.104,87.594z M280.159,81.428c0.389-0.144,0.598-0.271,0.598-0.561
			c0-0.826-0.93-1.776-2.049-1.776c-0.826,0-2.381,0.642-2.381,2.875c0,0.353,0.047,0.722,0.066,1.095L280.159,81.428z"/>
		<g>
			<path fill="#F9F9F9" d="M284.098,78.549v1.363h-0.164v-1.363h-0.455v-0.143h1.072v0.143H284.098z"/>
			<path fill="#F9F9F9" d="M285.961,79.912v-1.375h-0.015l-0.416,1.375H285.4l-0.427-1.375h-0.002v1.375h-0.148v-1.505h0.256
				l0.385,1.218h0.002l0.38-1.218h0.265v1.505H285.961z"/>
		</g>
	</g>
	<g>
		<path fill="#F9F9FA" d="M225.891,69.657h-1.034c0-0.144-0.103-0.546-0.294-1.212h-1.496c-0.206,0.654-0.302,1.056-0.302,1.212
			h-0.976c0-0.083,0.252-0.776,0.756-2.073c0.502-1.294,0.757-2.011,0.757-2.143h1.219c0,0.127,0.229,0.828,0.687,2.115
			C225.663,68.84,225.891,69.541,225.891,69.657z M224.398,67.827c-0.37-1.111-0.556-1.711-0.556-1.804h-0.053
			c0,0.086-0.189,0.686-0.572,1.804H224.398z"/>
		<path fill="#F9F9FA" d="M230.06,69.657h-0.799c0-0.093-0.292-0.556-0.888-1.402c-0.621-0.888-0.979-1.501-1.062-1.828h-0.052
			c0.057,0.472,0.084,0.901,0.084,1.279c0,0.533,0.014,1.181,0.042,1.95h-0.794c0.037-0.668,0.047-1.404,0.047-2.204
			c0-0.787-0.01-1.456-0.047-2.011h0.962c0,0.119,0.264,0.572,0.799,1.367c0.563,0.851,0.89,1.424,0.974,1.728h0.053
			c-0.053-0.482-0.08-0.912-0.08-1.295c0-0.583-0.012-1.183-0.049-1.8h0.811c-0.029,0.537-0.042,1.207-0.042,2.011
			C230.018,68.264,230.029,68.997,230.06,69.657z"/>
		<path fill="#F9F9FA" d="M234.752,67.402c0,0.613-0.197,1.146-0.594,1.604c-0.392,0.46-0.939,0.687-1.646,0.687
			c-0.315,0-0.76-0.012-1.317-0.036c0.027-0.651,0.04-1.39,0.04-2.204c0-0.785-0.013-1.456-0.04-2.012h0.567
			c0.088,0,0.227-0.002,0.416-0.008c0.177-0.006,0.297-0.008,0.355-0.008c0.775,0,1.34,0.191,1.689,0.58
			S234.752,66.861,234.752,67.402z M233.872,67.543c0-0.415-0.125-0.766-0.365-1.047c-0.241-0.284-0.611-0.426-1.108-0.426
			c-0.09,0-0.22,0.011-0.383,0.029c0.022,0.433,0.034,0.885,0.034,1.354c0,0.518,0.01,1.027,0.035,1.533
			c0.14,0.027,0.278,0.043,0.42,0.043c0.463,0,0.806-0.146,1.029-0.434C233.752,68.309,233.872,67.958,233.872,67.543z"/>
		<path fill="#F9F9FA" d="M239.075,69.657h-0.96c-0.247-0.765-0.44-1.236-0.573-1.417c-0.136-0.176-0.349-0.268-0.646-0.268
			c-0.125,0-0.245,0.002-0.36,0.002c0,0.556,0.01,1.114,0.031,1.683h-0.902c0.027-0.651,0.041-1.39,0.041-2.204
			c0-0.785-0.014-1.456-0.041-2.012h0.56c0.063,0,0.198-0.002,0.405-0.008s0.396-0.008,0.572-0.008c0.988,0,1.483,0.34,1.483,1.016
			c0,0.537-0.28,0.912-0.851,1.121v0.051c0.22,0.06,0.408,0.229,0.576,0.508C238.573,68.398,238.793,68.913,239.075,69.657z
			 M237.859,66.682c0-0.432-0.276-0.646-0.827-0.646c-0.203,0-0.381,0.015-0.537,0.045c0.025,0.333,0.034,0.771,0.034,1.307
			c0.122,0.002,0.222,0.008,0.306,0.008C237.522,67.395,237.859,67.156,237.859,66.682z"/>
		<path fill="#F9F9FA" d="M243.711,67.473c0,0.659-0.201,1.213-0.608,1.646c-0.403,0.436-0.903,0.654-1.505,0.654
			c-0.57,0-1.043-0.2-1.428-0.603c-0.383-0.397-0.576-0.907-0.576-1.524c0-0.662,0.201-1.211,0.607-1.646
			c0.404-0.434,0.907-0.654,1.506-0.654c0.564,0,1.045,0.197,1.429,0.6C243.52,66.345,243.711,66.854,243.711,67.473z
			 M242.816,67.566c0-0.453-0.116-0.817-0.346-1.097c-0.229-0.282-0.515-0.419-0.853-0.419c-0.313,0-0.582,0.139-0.805,0.424
			c-0.219,0.279-0.326,0.639-0.326,1.068c0,0.45,0.113,0.812,0.346,1.096c0.23,0.282,0.517,0.422,0.853,0.422
			c0.313,0,0.582-0.142,0.802-0.428C242.704,68.352,242.816,67.997,242.816,67.566z"/>
		<path fill="#F9F9FA" d="M245.54,69.657h-0.914c0.027-0.668,0.045-1.404,0.045-2.204c0-0.787-0.018-1.456-0.045-2.012h0.914
			c-0.025,0.545-0.043,1.216-0.043,2.012C245.497,68.268,245.514,69.001,245.54,69.657z"/>
		<path fill="#F9F9FA" d="M250.229,67.402c0,0.613-0.198,1.146-0.591,1.604c-0.394,0.46-0.94,0.687-1.647,0.687
			c-0.32,0-0.765-0.012-1.32-0.036c0.031-0.651,0.045-1.39,0.045-2.204c0-0.785-0.014-1.456-0.045-2.012h0.565
			c0.095,0,0.229-0.002,0.41-0.008c0.188-0.006,0.306-0.008,0.36-0.008c0.781,0,1.345,0.191,1.695,0.58
			C250.053,66.395,250.229,66.861,250.229,67.402z M249.345,67.543c0-0.415-0.119-0.766-0.362-1.047
			c-0.242-0.284-0.609-0.426-1.104-0.426c-0.096,0-0.226,0.011-0.383,0.029c0.02,0.433,0.026,0.885,0.026,1.354
			c0,0.518,0.015,1.027,0.037,1.533c0.14,0.027,0.28,0.043,0.419,0.043c0.465,0,0.811-0.146,1.031-0.434
			C249.23,68.309,249.345,67.958,249.345,67.543z"/>
		<path fill="#F9F9FA" d="M256.448,69.657h-1.031c0-0.144-0.104-0.546-0.297-1.212h-1.494c-0.203,0.654-0.307,1.056-0.307,1.212
			h-0.97c0-0.083,0.25-0.776,0.752-2.073c0.502-1.294,0.753-2.011,0.753-2.143h1.223c0,0.127,0.231,0.828,0.688,2.115
			C256.219,68.84,256.448,69.541,256.448,69.657z M254.952,67.827c-0.363-1.111-0.549-1.711-0.549-1.804h-0.057
			c0,0.086-0.188,0.686-0.569,1.804H254.952z"/>
		<path fill="#F9F9FA" d="M260.222,66.543c0,0.52-0.191,0.9-0.573,1.146c-0.383,0.244-0.855,0.367-1.411,0.367
			c-0.101,0-0.172-0.002-0.213-0.005c0,0.405,0.011,0.94,0.032,1.604h-0.911c0.028-0.624,0.045-1.359,0.045-2.204
			c0-0.776-0.017-1.447-0.045-2.011h0.565c0.084,0,0.23-0.002,0.459-0.008c0.225-0.007,0.424-0.009,0.592-0.009
			c0.408,0,0.753,0.091,1.035,0.277C260.079,65.891,260.222,66.169,260.222,66.543z M259.386,66.725
			c0-0.463-0.306-0.692-0.919-0.692c-0.154,0-0.313,0.02-0.484,0.05c0.025,0.406,0.037,0.871,0.037,1.382
			c0.052,0.009,0.117,0.009,0.186,0.009C258.995,67.473,259.386,67.223,259.386,66.725z"/>
		<path fill="#F9F9FA" d="M264.102,66.543c0,0.52-0.191,0.9-0.574,1.146c-0.385,0.244-0.854,0.367-1.41,0.367
			c-0.102,0-0.175-0.002-0.217-0.005c0,0.405,0.012,0.94,0.035,1.604h-0.908c0.029-0.624,0.042-1.359,0.042-2.204
			c0-0.776-0.013-1.447-0.042-2.011h0.562c0.082,0,0.234-0.002,0.457-0.008c0.229-0.007,0.425-0.009,0.591-0.009
			c0.411,0,0.755,0.091,1.04,0.277C263.959,65.891,264.102,66.169,264.102,66.543z M263.263,66.725c0-0.463-0.306-0.692-0.918-0.692
			c-0.15,0-0.312,0.02-0.481,0.05c0.023,0.406,0.034,0.871,0.034,1.382c0.058,0.009,0.115,0.009,0.188,0.009
			C262.872,67.473,263.263,67.223,263.263,66.725z"/>
		<path fill="#F9F9FA" d="M270.442,67.473c0,0.659-0.201,1.213-0.605,1.646c-0.405,0.436-0.906,0.654-1.51,0.654
			c-0.566,0-1.039-0.2-1.428-0.603c-0.383-0.397-0.574-0.907-0.574-1.524c0-0.662,0.202-1.211,0.606-1.646
			c0.407-0.434,0.907-0.654,1.505-0.654c0.568,0,1.048,0.197,1.429,0.6C270.25,66.345,270.442,66.854,270.442,67.473z
			 M269.551,67.566c0-0.453-0.115-0.817-0.344-1.097c-0.233-0.282-0.52-0.419-0.857-0.419c-0.314,0-0.584,0.139-0.803,0.424
			c-0.219,0.279-0.327,0.639-0.327,1.068c0,0.45,0.116,0.812,0.346,1.096c0.233,0.282,0.517,0.422,0.853,0.422
			c0.315,0,0.586-0.142,0.804-0.428C269.44,68.352,269.551,67.997,269.551,67.566z"/>
		<path fill="#F9F9FA" d="M274.829,69.657h-0.803c0-0.093-0.295-0.556-0.888-1.402c-0.62-0.888-0.976-1.501-1.06-1.828h-0.055
			c0.055,0.472,0.082,0.901,0.082,1.279c0,0.533,0.018,1.181,0.046,1.95h-0.796c0.03-0.668,0.047-1.404,0.047-2.204
			c0-0.787-0.017-1.456-0.047-2.011h0.964c0,0.119,0.263,0.572,0.796,1.367c0.565,0.851,0.891,1.424,0.975,1.728h0.053
			c-0.057-0.482-0.077-0.912-0.077-1.295c0-0.583-0.017-1.183-0.047-1.8h0.81c-0.029,0.537-0.045,1.207-0.045,2.011
			C274.784,68.264,274.799,68.997,274.829,69.657z"/>
	</g>
</g>
<g>
	<path fill="#7553A2" d="M240.758,173.717c0,3.764-3.049,6.811-6.807,6.811H93.553c-3.762,0-6.812-3.047-6.812-6.811v-36.762
		c0-3.762,3.051-6.807,6.812-6.807h140.398c3.758,0,6.807,3.045,6.807,6.807V173.717z"/>
	<text transform="matrix(1 0 0 1 103.3677 159.5977)" fill="#FFFFFF" font-family="'GothamRounded-Bold'" font-size="15.4144">HOW IT WORKS</text>
</g>
<image overflow="visible" width="510" height="155" xlink:href="../../../../../../../../../Users/admin/Downloads/apple-store.png"  transform="matrix(0.3113 0 0 0.3113 -354.6885 -62.6265)">
</image>
<image overflow="visible" width="600" height="202" xlink:href="../../../../../../../../../Users/admin/Downloads/google-play-button.png"  transform="matrix(0.2591 0 0 0.2591 -352.0474 17.3267)">
</image>
</svg>
