<?xml version="1.0" encoding="utf-8"?>
<!-- Generator: Adobe Illustrator 16.0.0, SVG Export Plug-In . SVG Version: 6.00 Build 0)  -->
<!DOCTYPE svg PUBLIC "-//W3C//DTD SVG 1.1//EN" "http://www.w3.org/Graphics/SVG/1.1/DTD/svg11.dtd">
<svg version="1.1" id="Layer_1" xmlns="http://www.w3.org/2000/svg" xmlns:xlink="http://www.w3.org/1999/xlink" x="0px" y="0px"
	 width="483px" height="128px" viewBox="0 0 483 128" enable-background="new 0 0 483 128" xml:space="preserve">
<g>
	<path fill="#FFFFFF" d="M83.664,19.842c-8.725,0-16.894,5.48-21.958,13.52c-5.064-8.039-13.231-13.52-21.96-13.52
		c-15.306,0-27.716,12.412-27.716,27.717c0,15.311,9.333,27.736,11.454,30.748c5.015,7.139,26.159,29.852,38.222,29.852
		c12.066,0,33.206-22.713,38.224-29.852c2.121-3.012,11.457-15.438,11.457-30.748C111.386,32.254,98.975,19.842,83.664,19.842
		 M95.175,74.236l-0.346,0.484c-6.378,9.068-25.425,27.197-33.123,27.197c-7.699,0-26.743-18.129-33.125-27.197l-0.337-0.484
		c-2.468-3.471-9.977-14.037-9.977-26.678c0-11.846,9.63-21.479,21.479-21.479c6.127,0,12.073,3.861,16.315,10.604l5.646,8.959
		l5.645-8.959C71.596,29.941,77.54,26.08,83.664,26.08c11.845,0,21.481,9.633,21.481,21.479
		C105.145,60.199,97.639,70.766,95.175,74.236"/>
	<g>
		<path fill="#FFFFFF" d="M395.451,38.387h-0.02c-1.712,0-3.101,1.381-3.118,3.098v5.906c0,11.141-8.938,19.543-20.793,19.543
			c-11.85,0-20.787-8.402-20.787-19.523v-5.885c0.016-1.721-1.374-3.129-3.097-3.139h-0.021c-1.712,0-3.105,1.381-3.118,3.098v5.906
			c0,13.688,10.079,24.225,23.908,25.613v16.539c0,1.723,1.394,3.119,3.114,3.119c1.727,0,3.121-1.396,3.121-3.119V73.004
			c13.828-1.385,23.907-11.926,23.907-25.594v-5.885C398.564,39.805,397.174,38.396,395.451,38.387"/>
		<path fill="#FFFFFF" d="M301.529,38.563c-8.355,0-15.828,3.807-20.79,9.779v-9.889c0-1.721-1.402-3.115-3.121-3.115
			c-1.725,0-3.122,1.395-3.122,3.115v27.135c0,14.902,12.127,27.027,27.033,27.027c14.903,0,27.025-12.125,27.025-27.027
			C328.554,50.684,316.432,38.563,301.529,38.563 M301.529,86.379c-11.466,0-20.79-9.326-20.79-20.791s9.324-20.789,20.79-20.789
			c11.46,0,20.785,9.324,20.785,20.789S312.989,86.379,301.529,86.379"/>
		<path fill="#FFFFFF" d="M228.017,38.563c-14.901,0-27.023,12.121-27.023,27.025c0,14.902,12.123,27.027,27.023,27.027
			c8.353,0,15.829-3.813,20.789-9.779v6.707c0,1.723,1.395,3.119,3.119,3.119c1.72,0,3.119-1.396,3.119-3.119V65.588
			C255.043,50.684,242.921,38.563,228.017,38.563 M228.017,86.379c-11.466,0-20.791-9.326-20.791-20.791s9.324-20.789,20.791-20.789
			c11.461,0,20.789,9.324,20.789,20.789S239.478,86.379,228.017,86.379"/>
		<path fill="#FFFFFF" d="M156.402,38.563c-8.351,0-15.823,3.807-20.79,9.779v-9.889c0-1.721-1.393-3.115-3.117-3.115
			c-1.724,0-3.123,1.395-3.123,3.115v27.135c0,14.902,12.129,27.027,27.029,27.027c14.906,0,27.025-12.125,27.025-27.027
			C183.427,50.684,171.309,38.563,156.402,38.563 M156.402,86.379c-11.465,0-20.79-9.326-20.79-20.791s9.325-20.789,20.79-20.789
			c11.46,0,20.795,9.324,20.795,20.789S167.863,86.379,156.402,86.379"/>
		<path fill="#FFFFFF" d="M446.809,92.662c8.105,0,15.721-3.59,20.879-9.859c0.168-0.207,0.301-0.432,0.408-0.666
			c0.949-1.205,1.805-2.482,2.543-3.836l-0.016-0.004c0.234-0.436,0.377-0.924,0.377-1.449c0-1.719-1.396-3.111-3.113-3.111
			c-1.059,0-1.992,0.531-2.555,1.338l-0.008-0.004c-0.84,1.629-1.891,3.135-3.109,4.48c-0.074,0.082-0.143,0.16-0.219,0.242
			c-1.557,1.666-3.385,3.082-5.414,4.166c-0.004,0.002-0.01,0.002-0.012,0.002c-1.221,0.652-2.506,1.184-3.855,1.584
			c-0.082,0.021-0.16,0.045-0.242,0.068c-0.857,0.242-1.742,0.434-2.639,0.566c-0.025,0.004-0.043,0.008-0.063,0.012
			c-0.459,0.063-0.92,0.109-1.383,0.146c-0.098,0.01-0.189,0.012-0.283,0.016c-0.426,0.027-0.857,0.047-1.297,0.047
			c-11.461,0-20.789-9.326-20.789-20.789V41.502c0-1.719-1.395-3.117-3.113-3.117c-1.725,0-3.123,1.398-3.123,3.117v24.135
			C419.784,80.539,431.913,92.662,446.809,92.662"/>
	</g>
</g>
</svg>
